<?xml version="1.0" encoding="UTF-8" standalone="no"?>
<svg 
  version="1.1" 
  xmlns="http://www.w3.org/2000/svg" 
  xmlns:xlink="http://www.w3.org/1999/xlink" 
  xmlns:svg="http://www.w3.org/2000/svg"
  xmlns:rdf="http://www.w3.org/1999/02/22-rdf-syntax-ns#"
  xmlns:cc="http://creativecommons.org/ns#"
  xmlns:dc="http://purl.org/dc/elements/1.1/"
  viewBox="0 0 768 768"
  width="768"
  height="768"
>
<style>svg {background-color: white; }</style>"
<metadata id="metadata1">
Created by https://svgstud.io and licensed under CC-BY-SA 4.0 license. Please attribute https://svgstud.io
</metadata>
<metadata id="prompt">
plato
</metadata>
<metadata id="version">
7
</metadata>
<metadata id="metadata2">
<rdf:RDF>
<cc:Work
    rdf:about="">
    <cc:license
    rdf:resource="http://creativecommons.org/licenses/by-sa/4.0/" />
    <dc:creator>
        <cc:Agent>
            <dc:title>https://svgstud.io</dc:title>
        </cc:Agent>
    </dc:creator>
</cc:Work>
<cc:License
    rdf:about="http://creativecommons.org/licenses/by-sa/4.0/">
    <cc:permits
    rdf:resource="http://creativecommons.org/ns#Reproduction" />
    <cc:permits
    rdf:resource="http://creativecommons.org/ns#Distribution" />
    <cc:requires
    rdf:resource="http://creativecommons.org/ns#Notice" />
    <cc:requires
    rdf:resource="http://creativecommons.org/ns#Attribution" />
    <cc:permits
    rdf:resource="http://creativecommons.org/ns#DerivativeWorks" />
    <cc:requires
    rdf:resource="http://creativecommons.org/ns#ShareAlike" />
</cc:License>
</rdf:RDF>
</metadata>
<metadata id="uid">
76f12af20811f974095da55cec6fe16d55114b04df7212911b61debe434a5089
</metadata>
<path stroke="none" fill="black" fill-rule="evenodd" d="M418.0,728.5C401.2,728.6 385.2,728.6 382.5,728.4C379.8,728.2 370.2,727.6 361.2,727.0C352.2,726.4 339.4,725.3 332.7,724.4C326.0,723.5 311.5,721.3 300.6,719.5C286.9,717.3 279.8,716.5 277.8,717.1C275.9,717.6 271.6,717.2 265.2,716.0C259.9,714.9 251.7,713.0 247.0,711.7C242.3,710.4 232.6,707.5 225.4,705.3C218.3,703.1 206.1,698.9 198.4,696.0C190.8,693.1 179.3,688.2 173.0,685.0C166.7,681.9 157.0,676.7 151.5,673.5C146.0,670.3 138.1,665.0 134.0,661.7C129.9,658.4 124.2,654.7 121.4,653.5C118.7,652.2 114.9,649.9 113.1,648.4C111.2,646.9 109.0,644.0 108.2,642.0C107.3,639.8 106.5,633.9 106.2,625.9C105.7,613.4 105.7,613.4 109.0,609.7C112.2,606.0 112.2,606.0 105.8,600.1C102.3,596.8 97.4,591.7 95.1,588.6C92.7,585.5 88.8,578.2 86.4,572.3C82.4,562.7 81.8,560.1 80.4,547.1C79.4,537.9 79.0,528.6 79.4,522.0C79.7,515.8 80.8,508.4 82.1,504.0C83.3,499.9 86.2,492.6 88.6,487.9C91.0,483.1 95.2,476.5 98.0,473.1C100.8,469.7 105.9,464.3 109.3,460.9C112.7,457.6 119.3,452.1 124.0,448.8C128.7,445.4 133.5,441.7 134.8,440.6C136.1,439.4 138.1,436.4 139.1,433.9C140.2,431.3 142.6,427.9 144.3,426.2C146.1,424.5 152.2,420.8 157.9,418.0C163.7,415.1 173.6,410.8 179.9,408.4C186.2,405.9 197.5,402.1 205.0,399.9C212.4,397.8 220.2,395.5 222.2,395.0C224.2,394.4 226.2,393.5 226.5,393.0C226.8,392.5 226.4,390.7 225.5,389.0C224.6,387.3 223.4,385.8 222.7,385.6C222.0,385.4 218.6,384.7 215.0,384.1C211.4,383.4 204.8,381.1 200.4,379.0C194.4,376.1 190.9,373.6 187.2,369.5C184.4,366.4 179.6,360.2 176.5,355.6C173.5,351.0 170.3,345.4 169.5,343.1C168.7,340.7 167.7,335.3 167.4,330.9C166.8,324.1 166.4,323.0 164.6,322.5C163.4,322.1 161.3,321.4 159.8,320.8C158.2,320.2 157.0,319.1 157.0,318.3C157.0,317.5 158.6,316.2 160.5,315.4C162.5,314.6 165.7,312.5 167.8,310.7C169.8,308.8 173.2,306.1 175.3,304.5C177.4,303.0 179.3,302.0 179.6,302.2C179.8,302.5 178.7,306.2 177.0,310.4C174.9,315.9 174.0,319.7 174.0,324.0C174.0,327.2 174.4,330.1 174.9,330.5C175.4,330.8 176.3,329.5 177.0,327.6C177.6,325.7 179.9,322.1 182.2,319.6C184.4,317.0 187.5,314.3 189.1,313.5C190.6,312.7 192.4,312.0 193.0,312.0C193.5,312.0 194.0,312.4 194.0,312.9C194.0,313.4 192.5,316.3 190.6,319.4C188.7,322.5 186.2,328.7 185.0,333.3C183.4,339.0 182.9,343.0 183.3,346.6C183.6,349.4 184.8,353.6 185.9,355.8C187.0,358.0 188.4,360.1 189.0,360.5C189.6,360.9 189.9,358.1 189.9,352.8C189.8,348.2 190.3,343.1 191.0,341.5C191.6,339.9 193.1,337.0 194.3,335.3C195.5,333.5 196.7,332.0 197.0,332.0C197.3,332.0 197.5,335.0 197.6,338.8C197.6,342.5 198.0,347.6 198.4,350.3C198.8,352.9 199.5,354.8 199.9,354.5C200.4,354.3 201.0,352.1 201.3,349.7C201.7,347.3 203.7,341.2 205.8,336.3C207.9,331.4 212.7,322.9 216.4,317.6C220.1,312.2 223.7,306.2 224.5,304.3C225.3,302.3 226.0,298.7 226.0,296.1C226.0,293.6 225.6,290.9 225.1,290.1C224.4,289.0 223.7,289.7 222.1,292.7C221.0,294.9 218.7,297.9 217.0,299.4C215.3,300.8 213.4,302.0 212.9,302.0C212.4,302.0 212.0,301.8 212.0,301.5C212.0,301.3 213.1,297.7 214.5,293.6C215.9,289.5 217.0,284.4 217.0,282.3C217.0,280.2 216.3,276.3 215.5,273.6C214.7,270.9 214.0,265.8 214.0,262.3C214.0,258.9 213.6,256.0 213.1,256.0C212.7,256.0 211.2,257.0 209.9,258.2C208.5,259.5 206.1,262.5 204.4,265.0C202.7,267.5 199.7,272.5 197.7,276.1C195.7,279.7 192.3,284.5 190.1,286.7C187.7,289.2 182.8,292.4 177.6,294.9C172.8,297.2 168.1,299.0 167.0,299.0C165.9,299.0 165.0,298.8 165.0,298.5C165.0,298.2 165.7,296.3 166.5,294.3C167.6,291.8 167.7,290.4 167.0,289.4C166.4,288.7 163.4,286.5 160.5,284.4C157.5,282.4 155.0,280.1 155.0,279.4C155.0,278.7 157.2,277.4 159.8,276.6C162.6,275.6 166.1,273.4 168.2,271.2C170.2,269.2 172.5,266.1 173.4,264.3C174.3,262.5 175.0,260.4 175.0,259.4C175.0,258.5 173.5,251.4 171.6,243.6C169.7,235.9 167.3,225.4 166.1,220.5C164.9,215.5 164.0,209.8 164.0,207.9C164.0,206.0 164.7,201.8 165.5,198.7C166.3,195.5 168.0,191.0 169.1,188.7C170.3,186.4 174.1,180.2 177.6,175.0C181.0,169.8 184.8,163.5 185.9,161.0C187.4,157.6 188.0,154.4 188.0,148.0C188.0,143.3 188.5,136.6 189.0,133.0C189.6,129.4 190.8,124.2 191.7,121.5C192.5,118.8 195.0,112.9 197.2,108.5C199.4,104.1 203.3,97.6 205.8,94.0C208.4,90.4 215.5,82.5 221.7,76.3C227.9,70.2 236.8,62.2 241.5,58.6C246.2,54.9 253.8,49.9 258.4,47.5C263.0,45.0 270.7,41.6 275.5,40.0C280.4,38.4 287.7,36.4 291.9,35.6C296.1,34.8 305.9,33.6 313.8,32.9C321.9,32.3 334.4,32.0 342.8,32.3C352.7,32.7 360.0,33.5 365.2,34.9C369.4,36.0 375.7,38.3 379.2,40.0C382.7,41.8 387.9,45.5 390.8,48.3C393.8,51.2 397.2,55.5 398.5,58.0C399.7,60.5 401.6,63.2 402.6,64.1C403.7,64.9 406.8,66.2 409.5,66.8C412.2,67.5 417.2,69.4 420.5,71.0C423.8,72.6 428.5,75.6 430.9,77.7C433.3,79.7 437.2,84.0 439.5,87.1C441.8,90.2 446.0,98.3 449.0,105.1C451.9,111.9 457.3,122.2 461.0,128.0C464.7,133.8 468.1,139.6 468.6,141.0C469.0,142.4 469.4,147.6 469.4,152.6C469.5,160.8 469.8,162.1 472.2,165.6C473.8,167.8 476.1,172.5 477.5,176.0C478.9,179.6 480.3,184.3 480.6,186.5C480.9,188.9 480.3,194.4 479.1,200.0C477.9,205.2 477.0,210.7 477.0,212.3C477.0,213.8 477.7,216.5 478.6,218.3C479.6,220.1 482.2,224.3 484.6,227.7C486.9,231.2 489.6,236.0 490.5,238.5C491.8,241.8 492.1,244.9 491.8,250.7C491.4,257.4 490.7,259.7 487.0,267.0C484.7,271.7 480.6,278.6 477.9,282.5C473.1,289.5 473.1,289.5 473.7,299.0C474.1,307.1 473.9,309.3 472.1,314.0C471.0,317.0 467.8,322.2 465.2,325.5C462.1,329.2 457.4,333.4 452.6,336.4C446.1,340.6 444.4,342.3 441.4,347.5C439.6,350.9 438.0,354.2 438.0,354.7C438.0,355.3 439.2,356.1 440.7,356.5C442.3,356.9 450.2,358.0 458.5,359.0C466.7,360.1 478.7,361.6 485.0,362.5C491.3,363.3 499.8,364.7 503.8,365.6C507.8,366.4 513.0,368.0 515.3,369.0C517.6,370.0 523.1,371.1 527.5,371.4C531.9,371.8 538.0,372.8 541.0,373.7C544.0,374.5 548.2,376.1 550.2,377.1C552.3,378.2 555.5,380.5 557.3,382.4C559.5,384.5 563.1,386.5 567.6,388.0C571.4,389.3 579.0,392.5 584.5,395.1C590.0,397.8 596.1,401.3 598.1,402.9C600.1,404.6 603.0,408.7 604.8,412.3C606.5,415.9 608.5,419.2 609.2,419.6C609.9,420.1 615.2,422.5 621.0,425.0C626.8,427.6 635.2,432.0 639.8,434.8C644.3,437.6 652.0,443.0 656.8,446.7C661.6,450.4 668.9,457.0 673.1,461.2C677.3,465.5 683.1,472.4 685.9,476.5C688.8,480.7 692.9,488.3 695.1,493.5C697.9,500.3 699.3,505.1 699.8,510.7C700.2,515.0 700.2,521.9 699.8,526.0C699.4,531.3 698.0,536.3 695.3,543.0C693.1,548.2 689.3,555.7 686.7,559.7C684.2,563.6 678.7,570.7 674.5,575.4C670.4,580.0 663.5,586.7 659.2,590.1C655.0,593.5 647.5,599.0 642.5,602.3C637.5,605.5 628.7,610.6 622.8,613.6C616.8,616.6 607.6,620.7 602.3,622.9C596.9,625.0 586.2,628.8 578.5,631.3C570.8,633.9 559.8,637.0 554.0,638.4C548.2,639.7 540.6,641.3 537.0,641.8C533.4,642.4 525.1,643.6 518.5,644.4C511.9,645.3 495.9,646.7 483.0,647.5C470.1,648.4 444.4,649.3 426.0,649.7C406.0,650.0 382.3,649.8 367.0,649.1C353.0,648.5 335.0,647.3 327.2,646.5C319.3,645.7 307.4,644.3 300.7,643.5C294.0,642.6 284.0,641.0 278.6,640.0C273.1,638.9 266.5,637.3 263.8,636.4C261.2,635.6 258.7,634.4 258.4,633.8C257.9,633.0 260.8,632.9 268.6,633.3C274.6,633.7 281.3,634.4 283.5,634.9C285.7,635.4 293.1,636.6 300.0,637.4C306.9,638.3 319.2,639.6 327.5,640.4C335.8,641.2 351.9,642.4 363.4,643.1C377.4,643.9 396.3,644.1 419.9,643.7C439.5,643.3 457.5,642.9 460.0,642.7C462.5,642.5 472.8,641.8 483.0,641.1C493.2,640.4 506.4,639.0 512.5,638.0C518.5,636.9 530.2,634.5 538.5,632.7C546.8,630.8 556.9,628.3 561.0,627.2C565.1,626.0 575.2,622.8 583.5,620.0C591.9,617.1 606.4,610.9 616.5,605.9C627.0,600.7 638.4,594.2 643.9,590.3C649.1,586.6 656.7,580.4 660.9,576.6C665.1,572.8 670.9,566.8 673.8,563.1C676.7,559.5 680.8,553.6 682.9,550.0C685.0,546.4 687.9,540.3 689.3,536.4C690.7,532.5 692.2,526.2 692.5,522.4C693.0,517.4 692.7,513.0 691.5,507.0C690.6,502.3 688.4,495.2 686.8,491.2C685.1,487.1 681.2,480.4 678.0,476.2C674.9,471.9 668.9,465.2 664.6,461.2C660.4,457.2 653.4,451.3 649.0,448.1C644.6,444.8 637.3,439.9 632.8,437.2C628.2,434.5 622.6,431.3 620.3,430.1C618.0,429.0 615.2,428.0 614.0,428.0C612.9,428.0 612.0,428.6 612.0,429.4C612.0,430.1 613.0,432.9 614.2,435.6C615.4,438.3 618.1,445.4 620.3,451.5C622.4,457.6 626.4,468.8 629.2,476.5C631.9,484.2 635.4,494.3 637.0,499.0C638.5,503.7 642.3,513.7 645.5,521.4C651.1,535.2 651.1,535.2 648.8,537.7C647.5,539.1 645.6,540.7 644.5,541.3C643.4,541.9 637.7,542.6 631.9,543.0C621.3,543.6 621.3,543.6 611.5,553.3C606.2,558.7 598.6,565.3 594.6,567.9C590.7,570.6 582.8,575.1 577.1,578.0C571.4,580.8 561.5,584.9 555.1,587.0C548.7,589.2 536.4,592.7 527.8,595.0C519.1,597.2 506.1,600.0 498.8,601.1C491.5,602.2 482.6,603.5 479.0,604.0C475.4,604.5 468.9,604.9 464.5,604.9C460.1,604.8 455.4,604.5 454.0,604.1C452.3,603.6 451.9,603.2 452.8,602.6C453.5,602.2 458.0,601.2 462.7,600.4C467.5,599.7 471.9,598.5 472.6,597.8C473.3,597.1 474.9,593.4 476.3,589.5C477.7,585.6 481.6,575.1 485.0,566.0C488.3,556.9 495.2,538.5 500.2,525.0C505.1,511.5 510.9,495.7 513.1,489.7C515.2,483.8 517.9,477.2 519.0,475.0C520.1,472.8 522.4,468.9 524.0,466.3C527.0,461.6 527.0,461.6 527.0,465.3C527.0,467.4 525.6,476.1 523.9,484.8C522.3,493.4 519.3,507.5 517.4,516.0C515.5,524.5 513.1,535.1 512.0,539.5C510.9,543.9 509.3,551.5 508.4,556.4C507.5,561.4 505.5,571.2 503.9,578.4C502.3,585.6 501.2,592.0 501.5,592.7C501.8,593.7 503.0,593.9 505.7,593.5C507.8,593.1 513.3,592.1 518.0,591.3C522.7,590.4 527.4,589.2 528.6,588.4C530.2,587.5 531.0,585.4 531.8,579.8C532.5,575.8 533.5,568.9 534.1,564.5C534.7,560.1 536.2,550.2 537.5,542.5C538.8,534.8 540.1,526.0 540.5,523.0C540.9,520.0 542.7,508.9 544.6,498.5C546.5,488.1 549.2,474.8 550.5,469.0C551.9,463.2 554.2,454.0 555.8,448.5C557.4,443.0 560.1,435.6 561.8,432.0C563.5,428.4 567.3,422.4 570.2,418.5C573.5,414.2 577.8,410.0 581.4,407.6C587.2,403.7 587.3,403.6 585.2,401.9C584.0,401.0 577.8,398.3 571.3,396.0C564.8,393.7 557.0,391.6 554.0,391.3C548.9,390.8 548.1,391.1 542.5,394.7C539.2,396.9 534.3,401.1 531.6,404.1C528.9,407.1 524.2,413.3 521.2,417.9C518.2,422.6 511.3,435.2 505.9,445.9C500.5,456.7 495.2,468.0 494.0,471.0C492.8,474.0 489.4,481.3 486.3,487.2C483.3,493.2 480.4,498.0 479.8,498.0C479.1,498.0 478.9,496.0 479.3,492.2C479.7,489.1 481.3,482.6 482.9,477.9C484.5,473.2 486.1,467.3 486.5,464.9C487.2,460.5 487.2,460.5 485.2,462.3C484.1,463.3 480.5,468.9 477.3,474.8C474.0,480.7 463.6,502.4 454.1,523.0C444.6,543.6 435.1,564.3 433.0,569.0C430.9,573.7 427.8,580.9 426.1,585.0C424.4,589.2 421.2,596.1 419.0,600.4C416.8,604.7 415.0,608.8 415.0,609.6C415.0,610.6 417.8,611.0 427.8,611.2C439.6,611.5 440.5,611.6 440.5,613.5C440.5,614.9 439.5,615.7 437.0,616.3C435.1,616.7 424.7,617.2 414.1,617.3C394.6,617.5 394.6,617.5 391.2,622.0C389.3,624.5 385.7,628.9 383.1,631.8C378.3,637.0 378.3,637.0 367.7,637.0C361.8,637.0 357.0,636.6 357.0,636.2C357.0,635.8 359.1,633.4 361.6,631.0C364.1,628.5 371.0,619.3 376.9,610.5C382.8,601.7 392.0,587.3 397.5,578.5C402.9,569.7 411.7,555.8 417.0,547.5C422.3,539.2 431.2,524.9 436.7,515.5C442.2,506.1 448.7,495.1 451.0,491.0C453.4,486.9 457.3,480.1 459.8,476.0C462.2,471.9 467.4,463.8 471.3,458.0C475.2,452.2 481.0,443.9 484.3,439.5C487.6,435.1 493.4,427.9 497.1,423.4C500.9,419.0 507.5,412.0 511.7,407.9C516.0,403.8 522.4,398.3 526.0,395.6C529.6,392.9 535.7,388.9 539.7,386.6C543.7,384.4 547.0,382.2 547.0,381.8C547.0,381.5 544.6,380.3 541.8,379.4C538.6,378.3 533.8,377.6 529.5,377.6C524.8,377.6 521.4,378.2 519.0,379.4C517.1,380.4 510.8,384.8 505.0,389.1C499.2,393.4 491.5,399.9 487.9,403.7C484.3,407.4 478.1,414.4 474.1,419.2C470.1,424.1 466.4,428.0 465.9,428.0C465.4,428.0 465.0,426.7 465.0,425.2C465.0,423.5 467.1,418.9 469.8,414.4C472.4,410.1 477.2,402.9 480.4,398.5C483.7,394.1 490.7,386.2 496.1,380.9C506.0,371.3 506.0,371.3 502.1,370.2C500.0,369.5 496.3,368.7 493.9,368.4C490.1,367.9 488.9,368.3 484.7,371.0C482.1,372.8 476.6,377.6 472.6,381.7C468.5,385.8 461.6,394.3 457.3,400.5C453.0,406.8 447.0,416.3 444.0,421.6C441.0,426.9 436.1,434.5 433.3,438.4C430.4,442.2 424.8,448.7 420.8,452.8C416.8,456.9 412.7,460.6 411.7,461.2C410.7,461.7 409.6,461.9 409.3,461.7C409.1,461.4 410.0,458.9 411.4,456.1C412.8,453.4 415.3,449.6 416.9,447.8C418.5,446.0 424.0,438.4 429.2,430.9C434.4,423.5 440.8,413.6 443.3,408.9C445.8,404.3 448.4,399.1 448.9,397.5C449.8,395.0 448.9,395.7 443.3,401.5C439.5,405.4 434.0,412.3 430.9,417.0C427.8,421.7 423.6,427.4 421.5,429.5C417.7,433.5 417.7,433.5 416.8,430.9C415.9,428.3 415.7,428.3 409.2,428.7C405.5,429.0 400.9,429.9 399.0,430.9C396.7,432.0 391.7,437.3 383.9,446.9C377.5,454.9 371.3,461.7 370.2,462.1C369.1,462.5 363.5,463.4 357.8,464.1C352.2,464.8 340.3,465.4 331.5,465.5C319.1,465.5 312.4,465.0 302.0,463.2C294.6,461.9 284.0,459.7 278.5,458.3C273.0,456.9 265.1,454.2 261.0,452.3C256.9,450.5 252.5,448.0 251.3,446.8C250.0,445.6 249.0,444.1 249.0,443.4C249.0,442.5 251.6,443.0 257.4,445.1C262.0,446.7 271.8,449.5 279.1,451.4C286.5,453.3 298.5,455.6 305.9,456.5C313.3,457.5 321.5,458.0 324.2,457.8C326.8,457.5 329.3,457.0 329.7,456.6C330.1,456.3 328.9,454.5 327.2,452.7C325.4,450.8 322.6,445.8 320.7,440.8C318.8,436.1 316.9,430.9 316.6,429.3C316.2,427.8 314.7,424.6 313.4,422.2C311.5,419.0 309.6,417.3 305.7,415.6C302.8,414.3 299.2,412.0 297.7,410.4C296.1,408.9 292.5,402.9 289.7,397.1C285.6,388.8 283.6,385.9 280.3,383.5C278.0,381.9 272.5,377.9 267.9,374.6C259.9,368.9 259.7,368.8 260.3,371.6C260.7,373.2 262.4,385.1 264.1,398.0C265.8,410.9 267.4,423.9 267.7,426.9C268.3,432.1 268.2,432.2 266.1,431.1C265.0,430.4 263.2,428.3 262.1,426.2C261.1,424.2 259.8,420.2 259.2,417.5C258.6,414.8 257.8,409.7 257.4,406.2C257.1,402.4 256.3,399.7 255.5,399.4C254.8,399.1 252.7,399.6 250.8,400.6C249.0,401.5 246.2,403.4 244.5,404.8C242.8,406.1 238.4,410.2 234.6,413.7C230.8,417.2 226.3,420.8 224.8,421.6C223.2,422.4 220.5,423.0 218.8,422.8C215.7,422.5 215.7,422.5 219.9,417.3C222.1,414.4 227.8,408.8 232.4,404.8C237.1,400.8 240.8,397.4 240.6,397.3C240.4,397.1 237.0,397.6 232.9,398.4C228.8,399.2 216.2,403.0 204.8,406.8C193.5,410.7 179.3,415.9 173.3,418.5C167.4,421.0 159.1,424.8 155.1,426.8C148.5,430.0 147.3,431.1 145.3,435.2C144.0,437.8 142.1,443.7 141.1,448.2C140.1,452.8 137.6,463.9 135.6,473.0C133.6,482.1 130.3,496.7 128.4,505.5C126.4,514.3 124.2,523.8 123.4,526.7C122.6,529.5 121.2,532.4 120.4,533.1C119.1,534.1 118.7,534.1 117.9,532.9C117.4,532.1 117.0,530.8 117.0,530.0C117.0,529.2 117.9,523.3 118.9,517.0C120.0,510.7 122.3,499.5 123.9,492.2C125.6,484.8 128.6,472.7 130.5,465.3C132.5,457.8 133.9,451.3 133.8,450.8C133.6,450.3 130.8,451.7 127.6,453.9C124.4,456.0 117.6,461.8 112.6,466.7C107.6,471.6 101.3,478.9 98.7,482.8C96.0,486.8 92.4,493.7 90.7,498.3C87.7,506.2 87.6,507.1 87.5,521.5C87.5,536.5 87.5,536.5 92.1,546.0C94.6,551.2 99.4,559.1 102.7,563.5C106.0,567.9 112.9,575.6 118.1,580.6C123.3,585.6 132.5,593.0 138.5,597.0C144.6,601.1 156.5,607.8 165.0,612.1C173.5,616.3 184.8,621.4 190.0,623.3C195.2,625.2 207.2,629.1 216.5,631.9C225.8,634.7 238.4,638.1 244.5,639.6C250.6,641.0 257.2,642.9 259.2,643.7C261.3,644.5 262.7,645.6 262.4,646.1C262.1,646.6 259.0,647.0 255.5,647.0C251.9,647.0 243.7,645.9 237.3,644.5C230.8,643.1 217.3,639.5 207.2,636.5C197.1,633.5 184.5,629.2 179.2,626.9C173.9,624.6 165.1,620.5 159.6,617.8C154.2,615.1 145.0,609.9 139.2,606.3C133.4,602.7 125.4,597.4 121.6,594.5C117.7,591.6 112.7,587.5 110.5,585.3C108.2,583.2 102.6,576.8 98.0,571.2C93.4,565.5 89.4,561.3 89.2,562.0C88.9,562.7 90.6,566.9 92.9,571.5C95.6,576.9 99.7,582.8 105.0,588.9C109.5,593.9 113.5,598.0 113.9,598.0C114.4,598.0 116.7,600.6 119.1,603.7C121.4,606.9 124.5,610.5 125.9,611.7C127.4,613.0 133.4,617.3 139.5,621.4C145.6,625.5 158.2,632.6 167.5,637.2C176.9,641.8 190.6,647.6 198.0,650.2C205.4,652.8 214.7,655.8 218.5,656.9C222.4,658.0 230.0,659.9 235.4,661.0C240.8,662.1 249.8,664.1 255.4,665.5C260.9,666.9 274.7,669.5 286.0,671.4C297.3,673.3 311.4,675.4 317.5,676.0C323.6,676.6 331.4,677.5 335.0,678.0C338.6,678.5 349.1,679.4 358.4,680.1C368.5,680.8 386.0,681.0 401.9,680.7C420.8,680.4 433.0,679.6 444.0,678.1C452.5,677.0 464.2,675.3 470.0,674.4C475.8,673.5 484.0,671.5 488.2,669.8C492.5,668.1 496.0,666.4 496.0,666.0C496.0,665.5 493.0,665.0 489.2,664.8C485.5,664.7 463.8,664.8 441.0,665.3C418.2,665.7 390.9,665.8 380.5,665.5C370.1,665.2 355.0,664.5 347.0,663.9C339.0,663.3 325.8,661.8 317.5,660.5C309.2,659.2 301.3,657.7 299.8,657.1C298.2,656.5 297.0,655.6 297.0,655.0C297.0,654.4 300.0,654.0 304.4,654.0C308.5,654.0 316.2,654.4 321.6,655.0C327.1,655.5 345.7,656.4 363.0,657.0C384.7,657.7 407.6,657.7 436.5,657.0C459.6,656.5 486.9,655.4 497.2,654.6C507.5,653.7 522.3,651.9 530.2,650.6C538.1,649.2 550.1,646.5 557.0,644.6C563.9,642.8 572.0,640.7 575.0,640.0C578.0,639.3 585.8,636.8 592.2,634.4C598.6,632.0 610.3,627.0 618.2,623.1C626.1,619.3 637.2,613.1 643.0,609.5C648.8,605.8 657.6,599.5 662.7,595.4C667.7,591.3 674.4,585.2 677.5,581.9C680.5,578.5 685.3,572.5 688.1,568.4C690.8,564.3 694.6,557.3 696.5,552.9C698.4,548.5 700.5,542.0 701.2,538.4C701.8,534.9 702.7,532.0 703.1,532.0C703.5,532.0 704.9,533.3 706.2,534.9C707.4,536.5 710.2,540.5 712.2,543.7C714.2,547.0 717.0,552.7 718.5,556.5C719.9,560.3 721.5,566.7 722.1,570.7C722.8,575.8 722.8,580.4 722.0,586.1C721.4,590.5 719.6,597.8 718.0,602.1C716.4,606.4 714.3,611.4 713.5,613.0C712.6,614.7 709.2,619.9 705.9,624.5C702.6,629.1 695.0,637.5 689.1,643.2C683.2,648.9 674.8,656.0 670.4,659.2C666.1,662.3 657.3,667.8 651.0,671.5C644.7,675.3 632.8,681.5 624.5,685.5C616.2,689.4 603.6,694.7 596.5,697.3C589.4,699.9 577.6,703.8 570.5,705.9C563.4,708.1 551.9,711.3 545.0,713.0C538.1,714.6 523.7,717.6 513.0,719.5C502.3,721.4 483.4,724.1 471.0,725.6C452.3,727.8 443.4,728.3 418.0,728.5zM275.0,708.1C275.8,707.9 278.4,706.3 280.8,704.7C283.1,703.0 285.0,701.6 285.0,701.6C285.0,701.5 282.1,701.6 278.6,701.8C275.0,702.0 268.4,701.4 263.8,700.5C259.2,699.5 252.7,697.6 249.3,696.2C245.8,694.8 242.8,693.9 242.4,694.2C242.1,694.6 242.6,696.2 243.4,697.9C244.3,699.6 246.0,701.6 247.3,702.4C248.5,703.2 252.4,704.6 256.0,705.6C259.6,706.5 265.0,707.6 268.0,707.9C271.0,708.3 274.2,708.4 275.0,708.1zM272.1,694.9C277.7,695.0 277.7,695.0 278.4,689.9C278.8,687.0 279.4,683.4 279.7,681.9C280.2,679.2 280.1,679.0 276.9,679.0C275.0,679.0 270.6,678.3 267.0,677.5C263.4,676.6 256.8,674.8 252.2,673.3C245.1,671.0 243.7,670.8 243.0,672.0C242.5,672.8 242.3,676.2 242.7,679.5C243.0,683.3 244.0,686.3 245.1,687.5C246.1,688.7 249.2,690.4 251.9,691.4C254.6,692.3 259.0,693.5 261.7,694.0C264.3,694.4 269.0,694.8 272.1,694.9zM143.8,650.9C147.8,651.0 150.2,650.4 153.5,648.5C155.9,647.1 158.4,645.2 159.1,644.4C160.0,643.2 159.9,642.6 158.4,640.9C156.6,638.9 155.9,638.8 145.8,639.5C138.4,640.0 133.9,639.8 131.3,639.0C129.2,638.3 126.5,636.9 125.3,635.8C124.1,634.7 122.7,632.4 122.1,630.8C121.3,628.6 121.4,627.8 122.4,627.4C123.2,627.1 126.4,627.3 129.5,627.9C132.7,628.5 135.9,628.6 136.6,628.2C137.7,627.6 135.5,625.3 128.5,619.7C123.2,615.5 117.7,611.7 116.3,611.4C114.7,611.0 113.3,611.3 112.3,612.3C110.9,613.7 110.8,615.0 111.9,623.2C112.5,628.3 113.3,634.0 113.6,635.8C113.9,637.5 115.1,640.0 116.3,641.1C117.5,642.3 120.9,644.4 123.9,645.8C126.9,647.2 131.4,648.9 133.9,649.6C136.4,650.3 140.9,650.9 143.8,650.9zM486.3,632.9C485.3,632.8 483.5,632.5 482.2,632.3C481.0,632.1 480.0,631.5 480.0,631.0C480.0,630.6 482.0,629.7 484.4,629.1C486.8,628.5 498.1,626.4 509.6,624.4C521.1,622.5 533.2,620.4 536.5,620.0C540.1,619.4 542.9,619.5 543.4,620.0C544.0,620.6 542.4,621.8 539.4,623.1C536.7,624.2 528.4,626.5 521.0,628.0C513.6,629.6 503.1,631.3 497.8,631.9C492.4,632.5 487.3,632.9 486.3,632.9zM335.8,616.9C335.1,616.8 330.0,616.3 324.5,615.9C319.0,615.4 310.0,614.3 304.5,613.5C299.0,612.6 288.0,610.8 280.0,609.4C272.0,608.0 259.4,605.5 252.0,603.8C244.6,602.1 233.6,599.1 227.5,597.0C221.4,595.0 212.7,591.9 208.1,590.2C203.4,588.4 197.4,585.9 194.6,584.5C191.8,583.2 185.3,579.6 180.1,576.5C175.0,573.5 167.8,568.3 164.2,565.0C160.5,561.7 156.2,558.4 154.5,557.6C152.9,556.8 147.7,555.6 143.0,555.0C138.3,554.4 131.8,553.2 128.5,552.4C125.2,551.5 121.9,550.4 121.3,549.8C120.6,549.2 120.0,547.9 120.0,546.9C120.0,545.3 120.8,545.0 125.2,545.0C128.1,545.0 134.8,545.6 140.0,546.4C145.3,547.1 153.5,549.0 158.4,550.4C163.2,551.9 167.8,552.9 168.4,552.7C169.3,552.3 169.9,546.1 170.3,529.8C170.7,517.6 171.5,501.4 172.0,494.0C172.9,482.7 172.8,479.7 171.5,475.5C170.7,472.7 170.0,469.0 170.0,467.2C170.0,465.5 170.4,464.0 170.9,464.0C171.4,464.0 173.6,466.0 175.8,468.5C178.0,471.0 181.5,477.0 183.5,481.8C185.6,486.6 189.0,496.4 191.0,503.5C193.1,510.7 195.9,523.5 197.3,532.0C198.7,540.5 200.8,555.1 201.9,564.4C203.5,577.8 204.3,581.5 205.7,582.6C206.7,583.3 211.7,585.5 216.9,587.5C222.0,589.5 228.8,591.8 231.9,592.5C235.1,593.4 238.6,593.7 240.1,593.2C241.6,592.8 247.8,589.6 253.9,586.0C260.0,582.4 272.4,574.8 281.5,569.0C290.5,563.2 303.2,554.8 309.7,550.3C316.2,545.9 326.0,538.5 331.5,533.9C337.0,529.4 352.3,514.8 365.5,501.6C378.7,488.3 391.2,476.2 393.3,474.6C395.4,473.0 397.3,471.9 397.5,472.2C397.8,472.4 395.7,476.0 392.9,480.1C390.1,484.2 383.4,492.2 378.1,498.0C372.8,503.7 364.4,512.5 359.5,517.3C354.6,522.2 345.6,530.4 339.5,535.5C333.4,540.5 324.7,547.6 320.0,551.1C315.3,554.7 307.2,560.3 302.0,563.6C296.8,566.9 290.7,570.7 288.5,572.0C286.3,573.3 276.7,579.5 267.2,585.7C257.8,592.0 250.0,597.4 250.0,597.9C250.0,598.4 251.0,599.0 252.2,599.3C253.5,599.7 257.4,600.2 261.0,600.5C267.0,601.1 267.8,601.0 272.0,598.2C274.5,596.6 281.4,592.5 287.5,589.0C293.6,585.5 303.4,579.4 309.5,575.5C315.6,571.6 328.6,562.1 338.5,554.4C349.0,546.3 362.8,534.3 371.8,525.5C380.2,517.3 388.5,508.5 390.3,505.9C392.1,503.3 397.0,497.0 401.2,491.9C405.4,486.7 412.6,478.6 417.2,473.8C421.9,468.9 426.2,465.0 426.8,465.0C427.5,465.0 428.0,465.9 428.0,466.9C428.0,468.0 423.5,478.0 417.9,489.2C412.3,500.3 404.0,516.7 399.3,525.5C394.6,534.3 389.4,543.8 387.7,546.5C386.0,549.2 379.9,558.7 374.2,567.5C368.4,576.3 362.1,586.0 360.1,589.0C358.1,592.0 353.0,599.1 348.7,604.8C344.4,610.4 340.0,615.5 339.0,616.0C338.0,616.6 336.5,616.9 335.8,616.9zM327.6,609.9C329.8,609.9 332.3,609.4 333.2,608.8C334.1,608.1 337.7,603.9 341.2,599.5C344.7,595.1 351.2,586.5 355.6,580.5C360.0,574.5 365.9,566.1 368.7,562.0C371.4,557.9 376.2,550.2 379.3,545.0C382.4,539.8 386.1,532.7 387.6,529.2C389.1,525.8 390.0,522.6 389.6,522.3C389.2,521.9 370.0,540.5 347.0,563.5C323.9,586.6 305.0,606.0 305.0,606.7C305.0,607.4 307.9,608.1 312.8,608.5C317.0,608.8 321.2,609.3 322.0,609.4C322.8,609.6 325.3,609.8 327.6,609.9zM572.6,549.0C572.9,549.0 574.4,548.3 575.9,547.5C577.5,546.7 583.7,544.4 589.6,542.4C595.6,540.4 603.9,538.2 608.0,537.4C612.1,536.7 621.7,536.1 629.2,536.0C636.8,536.0 643.0,535.7 643.0,535.2C643.0,534.8 641.7,532.9 640.2,531.0C638.6,529.1 633.9,520.3 629.6,511.6C625.3,502.8 620.3,491.6 618.5,486.6C616.7,481.6 614.1,472.6 612.6,466.5C611.2,460.4 608.2,447.9 605.9,438.6C603.7,429.3 601.2,420.3 600.4,418.8C599.5,417.0 598.2,416.0 597.2,416.2C596.1,416.4 594.7,418.9 593.2,423.4C591.9,427.1 590.2,433.8 589.4,438.3C588.5,442.7 587.3,451.1 586.5,456.9C585.8,462.7 584.7,471.6 584.1,476.5C583.4,481.4 582.3,489.8 581.5,495.0C580.7,500.2 578.5,512.2 576.6,521.7C574.7,531.1 572.6,540.7 572.0,542.9C571.4,545.2 571.2,547.5 571.5,548.0C571.8,548.6 572.3,549.0 572.6,549.0zM267.3,481.5C264.1,481.7 258.4,481.3 254.5,480.6C250.7,479.8 244.9,478.2 241.7,477.0C238.4,475.8 233.5,472.9 230.7,470.6C227.9,468.3 224.8,465.1 223.9,463.5C223.0,461.8 221.9,459.5 221.5,458.2C221.0,456.6 221.3,456.0 222.5,456.0C223.3,456.0 227.5,458.0 231.8,460.5C236.0,462.9 243.8,466.5 249.0,468.3C254.2,470.2 262.7,472.7 267.8,474.0C273.4,475.5 277.0,476.9 277.0,477.7C277.0,478.4 276.1,479.4 275.0,480.0C274.0,480.6 270.5,481.2 267.3,481.5zM363.2,415.0C363.6,415.0 365.3,412.6 367.0,409.8C369.9,404.8 370.1,404.0 369.7,396.5C369.4,390.7 368.6,386.8 366.7,382.3C365.2,378.9 364.0,375.0 364.0,373.8C364.1,371.6 364.3,371.7 366.9,374.8C368.6,376.8 370.0,377.7 370.4,377.1C370.8,376.5 371.2,374.0 371.4,371.5C371.5,369.1 371.9,366.8 372.2,366.5C372.5,366.1 373.8,367.4 375.1,369.2C376.4,371.0 378.2,375.3 379.1,378.8C379.9,382.3 381.1,385.2 381.6,385.3C382.1,385.4 383.2,383.6 384.0,381.2C384.8,378.9 385.8,377.0 386.3,377.0C386.8,377.0 387.0,379.9 386.8,383.4C386.5,388.8 385.4,391.9 380.2,402.4C376.8,409.3 374.3,415.0 374.7,415.0C375.0,415.0 380.3,411.2 386.4,406.6C392.6,402.0 399.9,395.7 402.7,392.6C405.6,389.5 409.3,384.1 411.0,380.6C413.9,374.8 414.1,373.5 413.8,366.6C413.6,362.4 413.6,359.0 413.8,359.0C414.0,359.0 415.1,360.2 416.4,361.7C418.7,364.4 418.7,364.4 419.4,362.3C419.8,361.1 419.2,356.2 418.0,351.5C416.9,346.7 416.2,342.4 416.5,341.9C416.8,341.4 418.0,341.6 419.0,342.2C420.1,342.9 421.1,343.2 421.3,343.0C421.5,342.7 423.2,337.6 425.0,331.6C427.7,322.6 428.2,319.7 427.7,314.3C427.4,309.8 426.2,305.9 423.9,301.2C422.1,297.6 418.6,292.5 416.0,289.9C412.9,286.8 407.8,283.5 400.9,280.1C395.2,277.3 389.3,275.0 387.9,275.0C386.5,275.0 384.5,275.9 383.4,277.1C382.4,278.3 379.8,280.1 377.8,281.1C375.0,282.5 374.0,283.7 374.0,285.4C374.0,286.7 375.2,289.5 376.6,291.6C378.0,293.7 380.6,297.0 382.3,298.8C384.1,300.7 386.4,302.0 387.8,302.0C390.2,302.0 390.2,301.8 389.8,296.2C389.5,293.1 388.9,289.6 388.5,288.5C387.9,287.1 388.8,287.5 391.4,290.0C393.5,291.9 396.5,296.1 398.1,299.2C399.7,302.4 401.7,305.0 402.5,305.0C403.3,305.0 404.3,304.2 404.9,303.3C405.8,301.6 406.0,301.7 407.9,303.4C409.0,304.4 410.9,307.7 412.0,310.7C413.1,313.6 414.0,317.3 414.0,318.9C414.0,320.4 413.3,323.9 412.5,326.7C411.7,329.5 410.3,332.4 409.4,333.1C408.0,334.2 407.4,334.1 405.4,331.7C404.1,330.2 402.5,327.2 401.9,325.0C401.2,322.8 400.4,321.0 400.0,321.0C399.6,321.0 397.6,324.7 395.5,329.2C392.2,336.4 391.9,338.0 392.4,342.3C393.1,347.2 393.1,347.2 390.1,345.0C388.4,343.9 386.4,342.0 385.7,340.9C384.9,339.8 382.7,338.5 380.9,338.0C379.0,337.4 375.5,337.0 373.0,337.0C370.5,337.1 366.7,337.7 364.5,338.5C362.3,339.3 360.2,340.0 359.8,340.0C359.3,340.0 359.0,338.3 359.0,336.1C359.0,332.7 358.6,332.1 355.8,330.9C354.0,330.2 351.1,328.3 349.3,326.7C347.5,325.1 346.0,323.4 346.0,323.0C346.0,322.6 355.4,322.0 366.9,321.9C385.5,321.5 388.0,321.3 389.8,319.7C390.9,318.6 391.7,317.3 391.4,316.6C391.1,315.9 389.7,314.6 388.1,313.7C385.8,312.4 382.0,312.0 367.9,311.8C353.2,311.5 349.7,311.8 345.3,313.3C342.1,314.4 338.3,316.8 335.7,319.3C332.4,322.5 331.0,325.0 329.7,329.6C328.8,332.9 328.0,336.6 328.0,337.8C328.0,339.0 327.8,340.0 327.5,340.0C327.2,340.0 325.4,338.2 323.4,336.0C321.4,333.8 319.4,332.0 319.0,332.0C318.6,332.0 318.0,333.8 317.6,335.9C317.3,338.1 316.6,340.1 316.1,340.5C315.5,340.8 314.0,339.4 312.6,337.3C310.6,334.5 310.0,332.3 310.0,328.5C310.0,324.4 310.7,322.2 313.6,317.4C315.5,314.2 319.4,309.1 322.3,306.2C325.1,303.4 327.8,301.0 328.2,301.0C328.7,301.0 328.7,303.5 328.4,306.5C327.8,311.1 328.0,312.0 329.3,312.0C330.2,312.0 332.7,308.9 335.2,304.8C339.4,297.6 339.4,297.5 340.4,300.2C340.9,301.8 341.9,303.0 342.5,303.0C343.1,303.0 347.3,299.2 352.0,294.5C356.7,289.8 360.8,286.0 361.2,286.0C361.7,286.0 362.0,286.6 362.0,287.4C362.0,288.1 360.6,291.5 358.8,294.9C357.1,298.2 356.0,301.3 356.3,301.6C356.7,302.0 359.0,301.5 361.5,300.6C363.9,299.6 367.4,299.0 369.3,299.1C371.1,299.3 373.1,299.1 373.7,298.7C374.6,298.1 374.3,296.2 372.4,291.2C371.0,287.5 369.0,283.5 367.8,282.3C366.6,281.0 364.8,279.7 363.6,279.4C362.5,279.0 359.5,277.4 356.9,275.9C353.9,274.0 350.9,273.0 348.4,273.0C346.3,273.0 343.1,272.1 341.3,271.0C339.6,270.0 337.6,268.1 336.9,266.8C336.2,265.5 335.1,262.7 334.5,260.5C333.8,258.3 332.7,256.5 332.0,256.5C331.2,256.5 326.8,261.9 322.1,268.5C317.4,275.0 310.6,283.4 307.2,287.0C300.8,293.5 300.8,293.5 301.5,289.5C301.9,287.4 303.0,284.0 304.0,282.0C305.0,280.1 309.5,273.8 314.1,268.0C318.7,262.2 326.2,253.8 330.9,249.2C335.6,244.7 340.5,240.7 341.8,240.3C343.1,240.0 344.3,240.0 344.6,240.3C344.9,240.5 343.6,243.1 341.8,246.0C339.6,249.5 338.5,252.5 338.5,255.0C338.5,257.4 339.3,259.7 340.4,260.9C341.5,262.1 343.5,263.0 344.9,263.0C346.3,263.0 348.9,262.1 350.5,261.0C352.1,259.9 354.6,259.0 355.9,259.0C357.2,259.0 359.5,260.1 361.1,261.5C362.7,262.8 365.6,264.2 367.4,264.5C369.5,264.9 373.1,264.4 377.6,263.1C381.3,261.9 385.2,260.2 386.2,259.3C387.2,258.4 388.0,256.6 388.0,255.3C388.0,254.0 386.5,249.9 384.6,246.2C382.0,241.1 380.4,235.7 378.1,223.5C376.4,214.7 374.3,203.7 373.5,199.0C372.7,194.3 372.0,187.7 372.0,184.3C372.0,180.9 372.5,176.9 373.1,175.3C373.6,173.8 376.0,170.6 378.3,168.2C380.6,165.8 383.6,163.3 385.0,162.6C386.4,161.9 391.1,161.0 395.5,160.6C399.9,160.3 407.1,160.4 411.4,161.0C417.4,161.7 420.8,162.9 425.6,165.5C432.0,169.1 432.0,169.1 432.0,166.7C432.0,165.4 431.0,163.0 429.8,161.4C428.5,159.7 424.2,154.7 420.1,150.2C413.9,143.3 412.2,142.0 409.6,142.0C407.9,142.0 405.5,141.7 404.3,141.4C403.0,141.0 402.3,140.4 402.6,139.9C402.9,139.4 405.1,139.0 407.5,139.0C409.9,139.0 413.1,138.6 414.5,138.0C416.7,137.2 417.1,136.5 416.8,133.8C416.6,131.0 415.8,130.2 412.2,128.5C409.9,127.4 408.0,126.2 408.0,125.8C408.0,125.4 409.8,125.2 412.0,125.3C414.1,125.4 416.2,125.1 416.6,124.7C417.0,124.3 416.8,120.3 416.1,115.8C415.1,109.5 413.6,105.2 409.4,96.8C406.4,90.9 404.4,86.0 405.0,86.0C405.6,86.0 408.1,87.9 410.6,90.2C413.1,92.5 418.7,98.9 422.9,104.4C427.2,110.0 431.9,115.6 433.4,116.9C434.8,118.3 436.2,119.1 436.5,118.9C436.7,118.6 434.9,113.5 432.5,107.5C430.0,101.6 428.2,96.5 428.4,96.2C428.7,96.0 431.1,97.9 433.9,100.5C438.7,105.0 439.0,105.1 439.0,102.8C439.0,101.5 437.8,97.9 436.3,94.9C434.8,92.0 431.1,87.0 428.0,84.0C424.9,81.0 420.0,77.3 417.0,75.8C414.0,74.3 409.5,72.6 407.1,72.1C402.7,71.1 402.7,71.1 395.6,78.4C391.7,82.4 386.3,87.0 383.5,88.6C378.5,91.5 378.5,91.5 358.0,91.5C342.2,91.5 336.9,91.8 335.0,92.9C333.6,93.7 330.2,96.0 327.5,98.1C324.8,100.1 320.6,102.7 318.4,103.8C316.1,105.0 311.1,106.6 307.4,107.4C303.6,108.2 297.8,109.3 294.5,110.0C291.2,110.6 284.9,112.3 280.6,113.6C276.2,115.0 271.0,117.0 269.0,118.0C267.0,119.0 261.8,120.8 257.4,121.8C253.1,122.9 245.9,124.1 241.5,124.5C237.1,124.8 232.4,125.4 231.1,125.7C228.6,126.3 228.6,126.3 230.8,123.2C232.0,121.6 235.0,118.9 237.5,117.2C240.8,115.0 243.6,114.1 248.7,113.6C252.4,113.2 257.5,112.4 260.0,111.8C262.5,111.2 265.8,110.1 267.3,109.3C268.8,108.5 273.9,104.4 278.7,100.0C283.4,95.7 290.3,90.5 293.9,88.6C297.5,86.7 302.3,84.9 304.5,84.5C308.5,83.9 308.5,83.9 299.0,93.0C290.8,100.8 289.9,102.0 292.5,101.4C294.1,101.1 300.0,99.7 305.5,98.4C311.0,97.0 317.0,95.0 318.9,93.9C320.8,92.8 326.4,88.8 331.4,85.1C336.4,81.3 342.1,77.4 344.0,76.5C345.9,75.5 350.6,74.5 354.6,74.2C359.4,73.9 363.5,74.3 367.2,75.4C370.3,76.3 373.4,77.0 374.1,77.0C374.8,77.0 373.8,75.4 371.9,73.4C370.1,71.5 365.9,68.7 362.8,67.3C359.7,65.8 357.4,64.2 357.7,63.7C358.0,63.1 361.1,63.0 365.0,63.4C368.6,63.7 374.3,64.9 377.5,66.0C380.8,67.1 383.8,67.9 384.3,67.7C384.8,67.6 384.1,66.0 382.6,64.4C381.2,62.7 377.0,59.7 373.3,57.7C369.5,55.8 363.6,53.7 360.2,53.0C356.7,52.4 351.3,52.2 348.2,52.5C345.0,52.9 337.5,54.5 331.4,56.1C325.3,57.7 319.5,59.0 318.4,59.0C316.9,59.0 317.3,58.2 320.6,55.1C322.8,53.0 327.2,50.3 330.3,49.1C334.7,47.5 338.3,47.0 345.3,47.0C350.4,47.1 359.2,47.7 365.0,48.4C370.8,49.2 376.8,50.3 378.3,50.9C379.9,51.5 381.6,52.0 382.2,52.0C382.8,52.0 382.3,50.8 380.9,49.4C379.6,48.0 375.4,45.3 371.5,43.5C367.6,41.7 361.6,39.4 358.1,38.5C354.2,37.5 347.8,36.9 341.5,36.9C334.8,36.9 329.5,37.5 326.3,38.6C323.7,39.5 316.8,42.7 311.0,45.7C305.2,48.8 298.8,52.2 296.7,53.2C294.5,54.3 292.5,54.9 292.2,54.5C291.9,54.2 294.2,51.4 297.3,48.2C300.4,45.0 303.0,41.9 303.0,41.2C303.0,40.3 301.8,40.2 298.8,40.6C296.4,40.9 290.4,42.3 285.3,43.6C280.2,44.9 271.9,48.0 266.8,50.5C261.7,53.1 253.9,57.6 249.5,60.5C245.1,63.5 237.9,69.2 233.5,73.2C229.0,77.2 223.4,82.8 220.9,85.5C218.4,88.2 214.3,93.0 211.8,96.1C209.4,99.1 205.9,104.1 204.2,107.1C202.5,110.1 200.0,116.6 198.5,121.5C197.1,126.5 195.2,136.3 194.4,143.5C193.6,150.7 192.3,158.6 191.4,161.1C190.6,163.7 186.9,170.4 183.3,176.1C179.6,181.8 175.8,188.6 174.8,191.3C173.8,193.9 173.0,197.6 173.0,199.6C173.0,203.2 173.0,203.2 178.2,198.5C181.1,195.9 185.9,192.6 189.0,191.0C192.0,189.5 195.6,187.9 196.9,187.5C199.3,186.8 199.3,186.8 196.9,190.1C195.7,192.0 191.6,196.8 188.0,200.8C184.3,204.8 180.0,210.5 178.5,213.6C177.0,216.6 175.5,221.3 175.2,224.0C175.0,226.7 175.0,230.8 175.4,233.2C175.8,235.6 176.4,238.1 176.8,238.7C177.4,239.7 180.3,238.2 187.3,233.6C192.6,230.2 198.8,226.5 201.0,225.5C203.2,224.5 205.3,224.0 205.6,224.3C206.0,224.6 205.0,227.0 203.4,229.5C201.8,232.0 199.3,236.4 197.8,239.3C196.3,242.2 194.1,247.8 192.8,251.8C191.6,255.7 190.2,259.0 189.8,259.0C189.4,259.0 188.6,257.3 188.1,255.2C187.5,253.2 187.0,250.6 187.0,249.5C187.0,248.4 186.5,246.8 186.0,246.0C185.1,244.7 184.9,244.7 184.1,245.9C183.6,246.7 182.5,251.1 181.6,255.7C180.8,260.2 179.3,265.4 178.4,267.2C177.5,269.0 174.8,273.1 172.3,276.3C169.8,279.5 168.1,282.4 168.4,282.7C168.7,283.0 171.4,282.8 174.4,282.1C177.4,281.4 181.7,279.6 184.0,277.9C186.2,276.3 188.9,273.5 190.0,271.7C191.1,269.9 192.0,266.7 192.0,264.3C192.0,261.3 192.7,259.3 194.6,257.1C196.0,255.4 201.9,251.2 207.7,247.7C216.0,242.8 220.2,239.5 227.5,231.8C234.6,224.5 237.8,220.2 240.9,214.0C243.1,209.6 245.2,204.3 245.6,202.4C246.0,200.3 245.5,195.1 244.5,189.9C243.6,184.9 243.1,179.5 243.4,177.7C243.7,175.9 246.7,170.7 250.0,166.0C253.3,161.3 257.6,155.6 259.6,153.2C261.5,150.9 263.8,149.0 264.6,149.0C265.7,149.0 266.0,150.6 266.0,155.8C266.0,160.2 265.1,165.2 263.4,170.4C262.0,174.8 259.6,181.4 257.9,185.2C255.7,190.3 254.6,195.0 253.5,204.3C252.7,211.0 251.4,219.3 250.5,222.6C249.1,228.3 249.1,229.4 251.0,239.1C252.1,244.8 253.0,251.4 253.0,253.8C253.0,256.1 252.6,258.0 252.1,258.0C251.6,258.0 249.3,254.3 246.9,249.8C242.8,241.7 242.6,241.6 241.7,244.4C241.0,246.4 241.3,249.6 242.4,255.4C243.3,259.8 244.0,264.5 244.0,265.8C244.0,267.4 243.4,268.0 241.9,268.0C240.8,268.0 239.0,268.5 237.8,269.1C236.7,269.7 234.8,269.9 233.6,269.6C232.4,269.3 229.6,267.5 227.3,265.5C225.0,263.6 222.9,262.0 222.6,262.0C222.3,262.0 222.0,264.0 222.0,266.5C222.0,269.0 222.6,272.6 223.4,274.4C224.2,276.2 226.3,278.9 228.2,280.4C230.1,281.8 232.9,283.0 234.3,283.0C236.0,283.0 238.5,281.6 241.0,279.4C243.2,277.4 245.3,276.0 245.6,276.3C245.9,276.6 246.8,282.2 247.6,288.7C248.4,295.2 249.0,307.7 248.9,316.5C248.9,329.6 249.2,333.6 250.8,338.7C251.9,342.1 253.9,346.9 255.3,349.2C256.7,351.6 259.0,354.6 260.5,356.0C262.4,357.8 263.3,358.1 263.9,357.2C264.4,356.4 266.0,358.0 268.8,362.0C271.2,365.3 273.6,368.0 274.2,368.0C274.9,368.0 275.1,366.6 274.7,364.2C274.1,360.5 274.1,360.5 275.8,363.0C276.7,364.4 279.3,367.7 281.5,370.4C283.7,373.1 285.9,375.3 286.5,375.2C287.1,375.1 287.7,373.5 288.0,371.5C288.3,369.5 288.9,367.8 289.4,367.7C289.8,367.6 291.9,370.6 293.9,374.4C295.9,378.3 299.7,383.6 302.3,386.2C304.9,388.8 307.6,391.0 308.1,391.0C308.8,391.0 309.0,388.9 308.5,384.8C307.9,379.5 308.0,378.7 309.1,379.8C309.9,380.5 313.0,384.7 316.0,389.2C319.0,393.7 322.7,398.3 324.2,399.4C325.7,400.5 327.2,401.1 327.6,400.8C327.9,400.5 327.6,397.5 327.0,394.2C326.3,391.0 326.0,387.4 326.2,386.4C326.5,385.1 327.2,386.2 328.3,389.5C329.2,392.3 332.0,397.6 334.5,401.3C337.0,405.0 339.5,408.0 340.1,408.0C340.9,408.0 341.0,406.9 340.6,404.8C340.2,403.0 339.6,399.2 339.3,396.5C339.0,393.8 339.1,391.8 339.5,392.2C339.9,392.6 343.2,397.1 346.9,402.1C350.5,407.2 354.0,411.2 354.5,410.9C355.1,410.7 355.4,406.5 355.3,401.0C355.2,392.3 355.3,391.7 356.6,393.5C357.5,394.6 359.1,397.3 360.3,399.5C361.6,402.1 362.4,405.5 362.4,409.2C362.5,412.4 362.8,415.0 363.2,415.0zM398.7,387.8C396.5,389.9 396.5,389.9 396.5,378.6C396.5,367.3 396.5,367.3 399.8,369.9C401.6,371.3 403.3,373.5 403.7,374.8C404.0,376.1 403.5,379.0 402.6,381.4C401.7,383.8 399.9,386.6 398.7,387.8zM463.6,377.9C465.8,378.0 468.0,377.0 470.8,374.8C473.1,373.0 475.1,370.9 475.5,370.1C475.8,369.3 475.6,368.2 475.1,367.7C474.6,367.2 470.4,366.4 465.9,365.9C459.1,365.3 457.0,365.4 454.3,366.7C452.4,367.5 450.1,369.4 449.0,370.8C447.9,372.1 447.0,373.6 447.0,374.0C447.0,374.4 450.0,375.4 453.8,376.2C457.5,377.1 461.9,377.8 463.6,377.9zM218.6,375.8C218.8,375.6 218.2,373.4 217.4,371.0C216.2,367.6 215.9,363.6 216.2,354.9C216.6,343.2 216.6,343.2 221.8,332.5C224.7,326.6 226.9,321.6 226.8,321.4C226.6,321.3 224.2,322.8 221.5,324.9C218.7,327.1 214.7,331.1 212.6,333.9C210.4,336.9 208.4,340.9 207.9,343.3C207.5,345.6 207.6,351.5 208.1,356.3C208.6,361.1 209.7,366.4 210.5,367.9C211.3,369.5 213.4,372.0 215.1,373.4C216.8,374.9 218.4,375.9 218.6,375.8zM454.9,324.1C457.3,322.2 460.5,318.8 462.1,316.7C463.7,314.5 465.5,310.8 466.1,308.6C466.7,306.3 467.0,302.1 466.7,299.2C466.4,296.3 465.2,292.5 464.1,290.8C462.2,287.6 462.2,287.6 461.6,291.1C461.3,293.0 460.9,296.7 460.6,299.4C460.3,302.1 458.2,308.8 455.9,314.4C453.7,319.9 451.5,325.2 451.2,326.0C450.9,326.8 452.5,325.9 454.9,324.1zM282.5,307.3C281.6,307.7 280.9,306.7 280.3,304.2C279.7,301.9 278.8,300.6 277.9,300.6C277.1,300.7 275.8,301.1 274.9,301.4C273.7,302.0 273.1,301.4 272.6,298.9C272.3,297.2 272.0,294.1 272.0,292.0C272.0,289.9 272.7,287.7 273.5,287.0C274.8,286.0 275.4,286.2 277.1,288.4C278.2,289.8 279.7,291.0 280.4,291.0C281.1,291.0 282.2,292.1 282.8,293.4C283.4,294.7 284.2,297.4 284.5,299.3C284.9,301.3 284.9,303.7 284.6,304.8C284.2,305.9 283.3,307.1 282.5,307.3zM267.6,288.9C265.1,291.2 265.1,291.2 264.0,287.4C263.3,284.9 263.2,281.8 263.7,279.0C264.6,274.5 264.6,274.5 267.3,277.2C269.2,279.1 270.0,280.9 270.0,283.3C270.0,285.6 269.2,287.4 267.6,288.9zM408.9,280.0C409.5,280.0 410.8,279.0 411.9,277.8C413.1,276.6 414.2,274.2 414.6,272.4C415.1,269.8 414.3,267.8 410.6,261.3C408.1,256.9 406.0,253.0 406.0,252.6C406.0,252.2 407.6,252.0 409.5,252.2C411.4,252.3 413.1,252.2 413.3,252.0C413.5,251.7 415.7,248.6 418.1,245.1C420.5,241.6 424.4,236.1 426.7,232.7C429.0,229.4 431.2,225.0 431.5,222.9C431.9,220.8 431.6,216.6 430.9,213.5C430.2,210.5 429.5,208.0 429.2,208.0C429.0,208.0 427.1,209.4 425.0,211.0C422.9,212.7 419.6,214.7 417.6,215.5C415.7,216.3 412.2,217.0 410.0,217.0C407.7,217.0 401.9,215.4 396.9,213.5C391.9,211.6 387.2,210.0 386.4,210.0C385.6,210.0 385.0,210.5 385.0,211.2C385.0,211.8 386.6,219.8 388.6,228.9C390.6,238.0 392.9,246.7 393.6,248.2C394.4,249.7 396.1,254.5 397.5,258.8C398.9,263.1 401.2,268.4 402.8,270.6C404.3,272.7 406.1,275.7 406.7,277.2C407.4,278.8 408.4,280.0 408.9,280.0zM469.1,278.0C469.6,278.0 470.0,275.0 470.0,271.2C470.0,265.1 469.6,263.8 465.6,257.0C463.2,252.9 459.5,247.6 457.5,245.2C455.5,242.9 452.9,240.5 451.8,239.9C449.9,238.9 449.9,239.0 450.5,242.0C450.9,243.8 452.5,248.4 454.1,252.3C455.8,256.2 459.2,263.1 461.7,267.5C464.3,271.9 466.8,276.1 467.3,276.8C467.8,277.4 468.6,278.0 469.1,278.0zM282.4,260.0C281.3,260.0 278.4,258.7 275.9,257.1C273.5,255.6 270.3,253.0 268.8,251.4C267.3,249.8 265.7,247.4 265.2,246.0C264.7,244.6 263.9,241.1 263.5,238.2C263.1,235.4 263.2,233.0 263.7,233.0C264.2,233.0 266.4,235.0 268.7,237.5C271.1,239.9 274.4,242.7 276.2,243.6C278.0,244.5 281.7,245.9 284.4,246.6C287.7,247.5 289.9,247.6 291.1,246.9C292.3,246.3 293.1,246.4 293.5,247.0C293.9,247.6 293.3,249.2 292.3,250.7C291.3,252.1 289.7,254.4 288.8,255.8C287.9,257.2 286.6,258.7 285.8,259.1C285.1,259.6 283.6,260.0 282.4,260.0zM483.8,247.4C484.0,246.1 483.0,242.9 481.6,240.4C479.9,237.4 479.3,235.0 479.6,233.2C480.0,231.2 479.3,229.3 477.0,226.0C475.3,223.5 471.3,217.7 468.2,213.0C465.0,208.3 460.0,199.2 457.1,192.7C454.1,186.3 451.1,181.1 450.6,181.3C449.9,181.6 449.6,185.5 449.8,192.1C449.9,197.8 450.2,203.5 450.5,204.8C451.0,206.8 450.8,207.1 449.2,206.5C448.0,206.2 447.0,206.5 446.7,207.3C446.5,208.0 446.6,210.9 447.0,213.7C447.5,216.5 448.6,220.2 449.4,221.9C450.3,223.6 453.7,227.8 457.0,231.4C461.2,235.8 465.4,239.1 470.8,241.9C475.0,244.1 479.6,246.9 481.0,247.9C483.5,249.9 483.5,249.9 483.8,247.4zM312.0,216.8C305.1,217.1 304.0,216.9 298.2,214.0C294.8,212.2 290.7,209.3 289.2,207.4C286.9,204.5 285.9,204.0 282.2,204.0C279.9,204.0 278.0,203.6 278.0,203.2C278.0,202.8 278.5,201.9 279.2,201.2C280.0,200.4 279.6,199.8 277.4,199.0C275.8,198.4 273.3,197.5 271.8,196.9C270.2,196.2 269.0,195.2 269.0,194.6C269.0,194.0 270.5,190.4 272.2,186.7C274.0,183.0 277.5,177.6 280.0,174.7C282.5,171.7 286.3,167.9 288.5,166.3C290.7,164.6 294.6,162.5 297.2,161.5C301.2,160.0 304.3,159.9 321.1,160.4C339.9,161.0 340.4,161.0 343.0,163.5C344.4,164.9 346.3,166.0 347.2,166.0C348.1,166.0 349.4,164.6 350.2,163.0C350.9,161.3 351.9,160.1 352.5,160.3C353.0,160.5 353.6,162.1 353.8,164.0C354.0,165.8 353.9,168.3 353.6,169.5C353.3,170.7 351.2,173.7 349.0,176.2C345.0,180.8 345.0,180.8 346.5,185.0C347.3,187.3 348.0,191.3 348.0,193.8C348.0,198.1 347.9,198.2 346.2,196.7C345.2,195.7 343.8,195.0 343.2,195.0C342.5,195.0 342.0,195.9 342.0,196.9C342.0,198.0 339.8,201.5 337.1,204.8C333.4,209.2 330.7,211.3 325.9,213.5C321.2,215.6 317.5,216.5 312.0,216.8zM217.2,211.6C214.7,212.1 214.0,211.9 214.0,210.7C214.0,209.9 218.6,204.9 224.2,199.6C229.8,194.3 234.8,190.0 235.3,190.0C235.8,190.0 236.0,191.4 235.6,193.1C235.3,194.9 233.5,198.3 231.7,200.9C229.9,203.4 226.6,206.7 224.4,208.2C222.3,209.7 219.0,211.3 217.2,211.6zM194.0,207.0C191.9,207.0 191.9,207.0 194.0,204.0C195.1,202.4 198.4,199.1 201.3,196.7C204.2,194.3 209.9,189.8 214.0,186.8C218.1,183.8 222.4,180.3 223.4,179.1C224.5,178.0 225.6,177.0 226.0,177.0C226.4,177.0 226.3,179.1 225.9,181.7C225.4,184.2 223.9,188.2 222.6,190.4C221.3,192.7 218.5,195.9 216.4,197.5C214.2,199.2 211.4,201.3 210.0,202.1C208.6,203.0 205.0,204.5 201.8,205.4C198.7,206.3 195.2,207.0 194.0,207.0zM308.0,206.4C312.1,206.2 319.3,205.2 324.0,204.4C328.7,203.5 333.4,202.4 334.5,202.0C336.1,201.4 335.7,201.1 332.3,200.6C328.2,199.9 328.2,199.8 328.7,196.4C329.2,193.5 328.8,192.4 326.5,189.9C324.9,188.3 323.1,187.0 322.4,187.0C321.7,187.0 320.9,187.8 320.6,188.8C320.4,189.7 319.9,192.0 319.5,193.7C319.1,195.5 317.7,197.9 316.3,199.0C314.9,200.1 312.9,201.0 311.9,201.0C310.9,201.0 308.5,199.4 306.5,197.3C304.2,194.9 303.0,192.8 303.0,190.8C303.0,189.0 302.5,188.0 301.6,188.0C300.8,188.0 299.4,188.7 298.6,189.6C297.7,190.4 297.0,192.0 297.0,192.9C297.0,193.9 298.0,196.0 299.2,197.5C301.4,200.3 301.4,200.3 296.9,199.6C294.4,199.2 291.6,199.2 290.7,199.6C289.8,199.9 289.0,200.8 289.0,201.5C289.0,202.2 289.6,203.3 290.4,203.9C291.2,204.5 293.7,205.5 296.1,206.0C298.5,206.5 303.9,206.7 308.0,206.4zM408.9,205.4C411.3,205.2 414.1,205.0 415.0,205.0C416.2,205.0 416.8,204.2 416.8,202.8C416.7,201.5 417.3,199.1 418.0,197.4C418.7,195.7 419.0,193.6 418.7,192.6C418.3,191.7 417.1,191.0 416.0,191.0C414.9,191.0 413.7,191.8 413.3,192.8C413.0,193.7 411.8,195.7 410.8,197.2C409.5,199.2 408.0,200.0 406.0,200.0C404.0,200.0 402.3,198.9 400.0,196.4C397.9,194.0 397.0,192.0 397.3,190.6C397.5,189.5 398.1,187.7 398.5,186.8C399.0,185.4 398.7,185.0 397.2,185.0C396.1,185.0 393.8,186.6 392.1,188.5C390.4,190.5 389.0,192.9 389.0,193.9C389.0,194.9 389.7,196.3 390.5,197.0C391.3,197.7 392.0,198.6 392.0,199.0C392.0,199.4 390.0,199.5 387.5,199.2C383.5,198.8 383.0,198.9 383.0,200.8C383.0,202.0 383.9,203.1 385.1,203.5C386.2,203.9 391.0,204.5 395.8,205.0C400.6,205.4 406.5,205.6 408.9,205.4zM282.0,192.0C282.6,192.0 285.4,190.1 288.3,187.7C291.2,185.4 295.9,182.4 298.8,181.2C301.7,179.9 307.6,178.5 311.8,178.0C316.0,177.5 320.3,176.8 321.2,176.5C322.2,176.1 323.0,175.5 323.0,175.1C323.0,174.7 319.7,173.6 315.8,172.7C311.8,171.7 306.6,171.0 304.2,171.0C301.9,171.0 298.3,171.9 296.2,172.9C294.2,174.0 291.1,176.3 289.3,178.2C287.6,180.0 285.0,183.3 283.6,185.4C282.2,187.5 281.0,189.9 281.0,190.6C281.0,191.4 281.5,192.0 282.0,192.0zM427.1,185.9C427.5,186.0 428.1,185.3 428.4,184.4C428.9,183.2 427.2,180.9 423.1,176.8C417.1,170.8 417.1,170.8 409.8,171.5C405.8,171.9 401.0,172.8 399.2,173.6C397.5,174.3 396.0,175.4 396.0,175.9C396.0,176.5 397.0,177.2 398.2,177.4C399.5,177.7 403.3,178.1 406.7,178.3C411.5,178.5 414.5,179.5 419.7,182.2C423.5,184.2 426.8,185.9 427.1,185.9zM470.7,183.0C470.8,183.0 470.3,181.0 469.5,178.5C468.8,176.0 467.3,172.4 466.1,170.4C464.9,168.5 464.0,166.2 464.0,165.3C464.0,164.4 463.5,161.9 462.8,159.7C462.0,156.9 458.3,152.2 450.7,143.9C444.7,137.3 439.3,132.0 438.8,132.0C438.2,132.0 438.0,133.2 438.2,134.8C438.5,136.3 439.5,141.3 440.5,146.0C441.5,150.7 443.3,156.5 444.6,159.0C445.9,161.5 447.7,164.4 448.7,165.6C449.7,166.7 453.2,169.9 456.5,172.6C459.8,175.3 464.3,178.8 466.5,180.3C468.7,181.8 470.6,183.0 470.7,183.0zM209.2,169.0C207.5,169.0 206.0,168.6 206.0,168.0C206.0,167.5 207.6,165.8 209.6,164.3C211.6,162.8 216.0,159.2 219.4,156.4C222.7,153.7 227.7,149.9 230.3,148.1C233.0,146.3 235.4,145.1 235.7,145.4C236.0,145.7 235.1,148.4 233.6,151.4C231.8,155.0 229.1,158.3 225.7,161.1C222.8,163.4 218.7,166.1 216.5,167.1C214.3,168.1 211.0,169.0 209.2,169.0zM242.2,160.0C241.4,160.0 242.0,158.4 243.9,155.7C245.5,153.3 251.0,147.4 256.2,142.5C264.8,134.3 265.5,133.8 265.8,136.1C266.0,137.5 265.3,141.1 264.3,144.1C262.5,149.4 262.4,149.6 253.0,154.7C247.8,157.6 242.9,160.0 242.2,160.0zM202.0,145.5C199.7,147.5 199.7,147.5 200.2,141.5C200.4,137.9 201.7,133.0 203.4,129.4C204.9,126.0 207.7,121.7 209.6,119.9C211.5,118.1 213.0,117.0 213.0,117.6C213.0,118.1 212.3,121.5 211.6,125.1C210.8,128.8 208.8,134.4 207.2,137.6C205.6,140.9 203.2,144.4 202.0,145.5zM245.2,100.7C238.5,101.1 238.5,101.1 244.0,96.1C247.0,93.3 252.5,89.4 256.2,87.5C259.9,85.7 264.5,83.7 266.5,83.1C269.3,82.3 270.0,82.4 270.0,83.6C270.0,84.4 268.2,87.0 265.9,89.5C263.7,91.9 259.6,95.3 256.9,97.1C252.9,99.6 250.6,100.3 245.2,100.7z" />

</svg>